<svg width="42" height="46" viewBox="0 0 42 46" fill="none" xmlns="http://www.w3.org/2000/svg">
<path d="M38.7892 29.1187V16.8813C40.3055 16.4163 41.4152 15.0223 41.4152 13.3533C41.4152 11.3058 39.7553 9.64661 37.7084 9.64661C36.7318 9.64661 35.8496 10.0322 35.1874 10.65L24.605 4.5398C24.6669 4.27108 24.707 3.99454 24.707 3.70677C24.707 1.65923 23.0472 0 21.0004 0C18.9535 0 17.2936 1.65923 17.2936 3.70677C17.2936 3.99454 17.3337 4.27108 17.3957 4.5398L6.81251 10.6501C6.15036 10.0323 5.268 9.6467 4.29131 9.6467C2.24449 9.6467 0.584717 11.3058 0.584717 13.3534C0.584717 15.0223 1.69438 16.4163 3.21058 16.8814V29.1188C1.69438 29.5838 0.584717 30.9778 0.584717 32.6468C0.584717 34.6943 2.24449 36.3535 4.29131 36.3535C5.26872 36.3535 6.15036 35.9679 6.81251 35.3501L17.3949 41.4604C17.3329 41.7291 17.2929 42.0056 17.2929 42.2934C17.2929 44.3409 18.9527 46.0002 20.9996 46.0002C23.0464 46.0002 24.7062 44.3409 24.7062 42.2934C24.7062 42.0056 24.6662 41.7285 24.6042 41.4597L35.1867 35.3501C35.8488 35.9679 36.7312 36.3535 37.7084 36.3535C39.7553 36.3535 41.4152 34.6943 41.4152 32.6468C41.4153 30.9777 40.3055 29.5838 38.7892 29.1187ZM19.9189 38.7654C19.375 38.9322 18.8839 39.2115 18.4786 39.59L7.89611 33.4797C7.95801 33.2109 7.99817 32.9338 7.99817 32.6467C7.99817 30.9778 6.88851 29.5838 5.37222 29.1187V16.8813C5.91614 16.7145 6.40731 16.4352 6.8126 16.0567L17.395 22.1669C17.333 22.4357 17.293 22.7122 17.293 23C17.293 24.6689 18.4025 26.0629 19.9189 26.528V38.7654ZM18.4785 20.2966L7.89602 14.1864C7.95792 13.9176 7.99808 13.6411 7.99808 13.3533C7.99808 13.0655 7.95792 12.789 7.89602 12.5203L18.4793 6.40999C19.1413 7.02776 20.0237 7.41337 21.0003 7.41337C21.9769 7.41337 22.8592 7.02776 23.5214 6.40999L34.1038 12.5203C34.0419 12.7891 34.0017 13.0655 34.0017 13.3533C34.0017 13.6404 34.0419 13.9176 34.1038 14.1864L23.5199 20.296C22.8578 19.6788 21.9762 19.2933 20.9996 19.2933C20.0229 19.2933 19.1407 19.6788 18.4785 20.2966ZM36.6277 29.1187C35.1114 29.5838 34.0018 30.9777 34.0018 32.6467C34.0018 32.9338 34.042 33.211 34.1039 33.4797L23.5208 39.59C23.1147 39.2114 22.6243 38.9321 22.0805 38.7654V26.528C23.5968 26.0629 24.7063 24.6689 24.7063 23C24.7063 22.7122 24.6663 22.4357 24.6043 22.1669L35.1875 16.0567C35.5928 16.4353 36.0839 16.7146 36.6278 16.8813V29.1187H36.6277Z" fill="#FAFAFA"/>
</svg>
