<svg width="32" height="29" viewBox="0 0 32 29" fill="none" xmlns="http://www.w3.org/2000/svg">
<path d="M17.183 28.7819H25.7527C27.3783 28.7819 28.7409 28.211 29.7956 27.1113C30.8503 26.0566 31.5098 24.6503 31.5098 23.0683V5.88535C31.5098 4.30332 30.8503 2.89707 29.7956 1.84238C28.7409 0.787691 27.3347 0.171753 25.7527 0.171753H17.183V3.77597H25.7527C26.9831 3.77597 27.9056 4.69847 27.9056 5.88535V23.0683C27.9056 24.2552 26.9831 25.2213 25.7527 25.2213H17.183V28.7819ZM0 11.073V17.9285C0 18.7202 0.659531 19.3783 1.44984 19.3783H9.44859V24.7839C9.44859 25.2677 9.66797 25.6628 10.1081 25.8822C10.2839 25.9258 10.5033 25.9258 10.5919 25.9258C10.8998 25.9258 11.1628 25.8372 11.3836 25.6178L21.7111 15.2903C22.1063 14.8952 22.0627 14.1035 21.7111 13.6647L11.3836 3.38082C11.032 3.02925 10.5919 2.98566 10.1095 3.11644C9.66938 3.33582 9.45 3.68738 9.45 4.17113V9.62035H1.45125C0.659531 9.62035 0.00140625 10.2799 0.00140625 11.0702L0 11.073Z" fill="#FAFAFA"/>
</svg>
